<?xml version="1.0" standalone="no"?>
<!DOCTYPE svg PUBLIC "-//W3C//DTD SVG 20010904//EN"
 "http://www.w3.org/TR/2001/REC-SVG-20010904/DTD/svg10.dtd">
<svg version="1.0" xmlns="http://www.w3.org/2000/svg"
 width="512.000000pt" height="512.000000pt" viewBox="0 0 512.000000 512.000000"
 preserveAspectRatio="xMidYMid meet">

<g transform="translate(0.000000,512.000000) scale(0.100000,-0.100000)"
fill="#000000" stroke="none">
<path d="M1739 5091 c-19 -19 -29 -40 -29 -58 0 -20 39 -96 115 -224 105 -177
113 -195 97 -207 -9 -7 -60 -40 -112 -74 -121 -79 -286 -243 -363 -359 -144
-219 -224 -461 -230 -701 -2 -83 -1 -89 26 -115 l27 -28 1290 0 1290 0 27 28
c27 27 28 31 26 117 -9 338 -166 682 -420 920 -49 45 -128 108 -178 141 -49
32 -98 64 -108 71 -16 12 -8 28 94 198 129 214 138 243 91 290 -17 16 -40 30
-51 30 -52 0 -72 -23 -196 -231 l-125 -207 -62 20 c-100 31 -282 58 -388 58
-106 0 -288 -27 -388 -58 l-62 -20 -125 207 c-124 208 -144 231 -196 231 -11
0 -34 -13 -50 -29z m1004 -526 c425 -74 763 -352 913 -752 28 -75 64 -230 64
-280 l0 -33 -1160 0 -1160 0 0 33 c0 50 36 205 64 280 106 281 312 513 573
641 223 110 479 151 706 111z"/>
<path d="M1894 4079 c-15 -17 -19 -36 -19 -101 0 -73 2 -82 25 -100 21 -17 36
-19 103 -16 100 4 107 12 107 120 0 106 -12 118 -118 118 -68 0 -82 -3 -98
-21z"/>
<path d="M3030 4080 c-17 -17 -20 -33 -20 -98 0 -108 7 -116 107 -120 67 -3
82 -1 103 16 23 18 25 27 25 100 0 110 -11 122 -117 122 -65 0 -81 -3 -98 -20z"/>
<path d="M697 3211 c-76 -31 -132 -83 -169 -159 l-33 -67 0 -695 0 -695 27
-57 c114 -245 446 -251 569 -11 l24 48 0 715 0 715 -23 47 c-30 60 -90 120
-150 150 -65 31 -178 36 -245 9z m201 -195 l37 -34 3 -676 c3 -748 5 -716 -61
-756 -18 -12 -50 -20 -74 -20 -54 0 -108 44 -123 101 -7 25 -10 258 -8 681 3
608 4 645 22 674 26 43 63 63 119 64 40 0 53 -5 85 -34z"/>
<path d="M1243 3206 l-28 -24 -3 -919 c-1 -534 2 -946 7 -986 24 -174 152
-319 321 -363 30 -8 89 -14 132 -14 l78 0 0 -282 c0 -307 7 -362 53 -440 35
-59 97 -114 166 -146 47 -22 70 -27 141 -26 72 0 95 4 146 28 77 34 144 103
181 181 l28 60 3 313 3 312 89 0 89 0 3 -312 3 -313 28 -60 c37 -78 104 -147
181 -181 51 -24 75 -28 146 -29 77 0 92 3 152 33 81 40 148 110 180 190 21 54
22 73 26 365 l4 307 77 0 c42 0 101 6 131 14 169 44 297 189 321 363 5 40 8
449 7 987 l-3 918 -28 24 -28 24 -1289 0 -1289 0 -28 -24z m2485 -1043 c-3
-878 -3 -889 -24 -933 -11 -25 -36 -59 -54 -77 -60 -59 -90 -67 -258 -73 -153
-5 -154 -5 -178 -33 l-24 -28 0 -348 c0 -345 0 -348 -23 -392 -69 -131 -248
-130 -314 1 -23 43 -23 52 -23 383 0 374 -2 385 -61 406 -42 15 -376 15 -418
0 -59 -21 -61 -32 -61 -406 0 -331 0 -340 -22 -383 -67 -132 -249 -132 -315 0
-23 43 -23 51 -23 392 l0 347 -24 28 c-24 28 -25 28 -178 33 -168 6 -198 14
-258 73 -18 18 -43 52 -54 77 -21 44 -21 55 -24 933 l-2 887 1170 0 1171 0 -3
-887z"/>
<path d="M4207 3215 c-88 -32 -173 -122 -196 -207 -9 -32 -11 -229 -9 -738 l3
-695 24 -48 c98 -191 346 -237 496 -91 26 24 58 70 73 102 l27 57 0 695 0 695
-33 67 c-38 78 -94 129 -172 159 -59 22 -157 24 -213 4z m173 -181 c15 -9 36
-31 46 -48 18 -29 19 -64 22 -674 2 -423 -1 -656 -8 -681 -15 -57 -69 -101
-123 -101 -24 0 -56 8 -74 20 -66 40 -64 8 -61 756 l3 676 37 34 c32 28 45 34
84 34 25 0 58 -7 74 -16z"/>
</g>
</svg>
