<?xml version="1.0" standalone="no"?>
<!DOCTYPE svg PUBLIC "-//W3C//DTD SVG 20010904//EN"
 "http://www.w3.org/TR/2001/REC-SVG-20010904/DTD/svg10.dtd">
<svg version="1.0" xmlns="http://www.w3.org/2000/svg"
 width="512.000000pt" height="512.000000pt" viewBox="0 0 512.000000 512.000000"
 preserveAspectRatio="xMidYMid meet">

<g transform="translate(0.000000,512.000000) scale(0.100000,-0.100000)"
fill="#000000" stroke="none">
<path d="M3362 5095 c-445 -115 -812 -528 -873 -982 -21 -160 -1 -231 78 -268
29 -14 51 -16 114 -11 280 23 567 206 748 476 129 193 192 373 208 591 5 77 3
92 -17 133 -25 53 -77 86 -132 86 -18 -1 -75 -12 -126 -25z m128 -164 c0 -59
-27 -198 -53 -276 -96 -280 -312 -521 -557 -621 -63 -25 -183 -54 -227 -54
l-26 0 6 73 c18 206 121 432 274 598 116 125 322 251 488 298 96 27 95 27 95
-18z"/>
<path d="M3365 3919 c-126 -15 -265 -55 -480 -136 -291 -110 -284 -110 -594 6
-284 107 -354 120 -390 75 -46 -59 -12 -103 104 -135 44 -12 161 -52 260 -89
213 -79 253 -90 338 -90 76 0 114 11 351 99 207 78 311 106 446 122 233 27
559 -61 755 -204 67 -48 195 -175 195 -191 0 -6 -16 -22 -35 -35 -55 -37 -210
-204 -263 -284 -91 -135 -157 -294 -182 -440 -11 -59 -10 -71 5 -93 21 -32 53
-44 86 -32 32 11 44 35 60 113 16 88 46 169 95 265 73 142 120 197 335 394 92
83 76 159 -63 297 -121 121 -237 199 -393 264 -179 75 -452 115 -630 94z"/>
<path d="M1485 3870 c-125 -32 -267 -97 -387 -176 -94 -61 -291 -258 -355
-354 -128 -191 -213 -418 -254 -680 -18 -113 -18 -514 0 -635 73 -489 246
-958 485 -1315 177 -265 347 -466 480 -567 74 -56 179 -107 266 -129 127 -32
290 -6 503 82 200 83 292 104 445 104 137 0 226 -21 419 -99 174 -71 260 -91
387 -91 111 0 185 18 291 69 169 83 314 234 537 561 133 194 282 487 338 664
26 81 -7 159 -83 198 -248 125 -451 378 -522 647 -13 51 -32 102 -41 112 -37
41 -124 7 -124 -48 0 -35 39 -175 71 -255 85 -213 277 -431 483 -552 37 -22
69 -43 72 -47 7 -12 -78 -215 -148 -352 -108 -212 -310 -499 -448 -638 -143
-145 -247 -198 -398 -207 -118 -6 -182 7 -347 73 -248 99 -317 115 -499 115
-157 0 -253 -22 -452 -101 -180 -71 -233 -86 -329 -95 -91 -8 -177 13 -270 68
-182 106 -478 482 -656 830 -200 393 -314 819 -326 1223 -7 215 4 342 44 509
61 261 160 450 325 622 167 174 349 278 574 329 82 18 114 43 114 85 0 69 -61
85 -195 50z"/>
</g>
</svg>
