<?xml version="1.0" standalone="no"?>
<!DOCTYPE svg PUBLIC "-//W3C//DTD SVG 20010904//EN"
 "http://www.w3.org/TR/2001/REC-SVG-20010904/DTD/svg10.dtd">
<svg version="1.0" xmlns="http://www.w3.org/2000/svg"
 width="512.000000pt" height="512.000000pt" viewBox="0 0 512.000000 512.000000"
 preserveAspectRatio="xMidYMid meet">

<g transform="translate(0.000000,512.000000) scale(0.100000,-0.100000)"
fill="#000000" stroke="none">
<path d="M2295 5104 c-613 -67 -1146 -327 -1575 -770 -440 -454 -687 -1037
-716 -1689 -25 -566 156 -1144 507 -1617 111 -148 360 -401 502 -507 200 -149
444 -282 672 -366 648 -239 1399 -194 2028 121 112 57 268 155 402 254 110 81
361 325 447 435 378 482 579 1090 555 1685 -34 835 -451 1580 -1142 2042 -138
92 -390 218 -551 276 -353 128 -760 177 -1129 136z m301 -266 c-24 -398 -108
-716 -276 -1035 -88 -169 -258 -412 -342 -490 l-24 -22 -508 508 c-285 285
-506 513 -502 519 14 23 216 179 316 244 359 235 829 380 1259 387 l83 1 -6
-112z m289 86 c33 -3 110 -17 170 -30 395 -84 732 -249 1048 -513 42 -35 77
-67 77 -70 0 -3 -364 -371 -810 -816 l-810 -810 -242 242 -242 242 45 48 c216
233 413 579 522 918 63 196 117 488 117 629 0 29 3 81 6 115 7 60 8 62 33 57
14 -3 53 -8 86 -12z m-1562 -1252 l507 -508 -37 -35 c-125 -118 -341 -263
-538 -360 -299 -146 -641 -231 -970 -241 l-110 -3 -3 45 c-5 58 15 278 34 389
72 419 258 819 534 1147 34 41 65 74 68 74 4 0 236 -228 515 -508z m3072 416
c245 -295 425 -665 500 -1028 19 -88 47 -281 42 -286 -2 -2 -76 -8 -164 -14
-303 -19 -554 -76 -836 -189 -237 -95 -533 -279 -711 -442 l-58 -52 -241 241
-242 242 810 810 c445 446 813 810 816 810 4 0 41 -42 84 -92z m-2770 -2338
c-445 -446 -812 -810 -815 -810 -3 0 -35 35 -71 78 -295 348 -480 762 -544
1219 -8 58 -15 108 -15 109 0 1 53 5 118 8 164 9 386 42 522 76 399 101 780
299 1074 559 l59 53 241 -241 241 -241 -810 -810z m3322 715 c-25 -523 -210
-1011 -533 -1411 -41 -50 -81 -97 -90 -104 -13 -12 -82 53 -524 495 l-509 509
22 24 c41 44 191 159 302 231 381 248 792 373 1284 389 l54 2 -6 -135z m-2143
-274 l239 -240 -52 -57 c-29 -31 -88 -104 -131 -163 -299 -402 -471 -876 -500
-1384 -5 -88 -10 -161 -13 -163 -6 -7 -202 23 -307 46 -389 86 -766 279 -1060
540 l-45 40 810 810 c445 445 812 810 815 810 3 0 113 -108 244 -239z m1376
-1383 c0 -10 -138 -123 -236 -194 -374 -267 -855 -430 -1289 -437 l-129 -2 3
105 c7 347 98 700 262 1020 84 164 234 383 338 493 l35 37 508 -507 c280 -279
508 -511 508 -515z"/>
</g>
</svg>
