<?xml version="1.0" standalone="no"?>
<!DOCTYPE svg PUBLIC "-//W3C//DTD SVG 20010904//EN"
 "http://www.w3.org/TR/2001/REC-SVG-20010904/DTD/svg10.dtd">
<svg version="1.0" xmlns="http://www.w3.org/2000/svg"
 width="512.000000pt" height="512.000000pt" viewBox="0 0 512.000000 512.000000"
 preserveAspectRatio="xMidYMid meet">

<g transform="translate(0.000000,512.000000) scale(0.100000,-0.100000)"
fill="#000000" stroke="none">
<path d="M2885 5105 c-490 -68 -907 -419 -1060 -892 -54 -169 -57 -208 -62
-720 l-5 -483 -274 0 -274 0 0 -600 0 -600 275 0 275 0 0 -905 0 -905 650 0
650 0 0 905 0 905 275 0 275 0 0 600 0 600 -276 0 -275 0 3 328 c3 317 4 328
25 369 25 47 71 84 122 102 23 7 145 11 367 11 l334 0 0 650 0 650 -467 -1
c-317 -1 -497 -5 -558 -14z m725 -635 l0 -350 -198 0 c-216 0 -272 -9 -372
-58 -76 -38 -180 -142 -219 -221 -58 -113 -61 -147 -61 -663 l0 -468 275 0
275 0 0 -300 0 -300 -275 0 -275 0 0 -905 0 -905 -350 0 -350 0 0 905 0 905
-275 0 -275 0 0 300 0 300 275 0 275 0 0 563 c0 316 5 601 10 652 45 396 332
742 705 850 127 37 195 43 518 44 l317 1 0 -350z"/>
</g>
</svg>
