<?xml version="1.0" standalone="no"?>
<!DOCTYPE svg PUBLIC "-//W3C//DTD SVG 20010904//EN"
 "http://www.w3.org/TR/2001/REC-SVG-20010904/DTD/svg10.dtd">
<svg version="1.0" xmlns="http://www.w3.org/2000/svg"
 width="512.000000pt" height="512.000000pt" viewBox="0 0 512.000000 512.000000"
 preserveAspectRatio="xMidYMid meet">

<g transform="translate(0.000000,512.000000) scale(0.100000,-0.100000)"
fill="#000000" stroke="none">
<path d="M505 5106 c-229 -53 -385 -197 -441 -409 -18 -68 -18 -228 1 -297 66
-249 296 -419 568 -420 274 -1 501 156 578 400 27 84 29 228 5 320 -50 187
-190 333 -376 391 -85 27 -252 34 -335 15z m253 -281 c76 -23 132 -70 167
-140 62 -124 30 -282 -73 -360 -64 -49 -136 -68 -236 -63 -183 10 -289 116
-289 288 0 140 74 238 213 281 43 13 164 10 218 -6z"/>
<path d="M30 1730 l0 -1730 625 0 625 0 0 1730 0 1730 -625 0 -625 0 0 -1730z
m970 0 l0 -1450 -345 0 -345 0 0 1450 0 1450 345 0 345 0 0 -1450z"/>
<path d="M1830 1730 l0 -1730 555 0 555 0 0 923 c0 794 2 937 16 1018 35 209
136 333 302 368 89 19 310 14 381 -8 163 -51 308 -212 355 -396 14 -51 16
-180 16 -982 l0 -923 541 0 540 0 -4 1068 c-4 1123 -5 1138 -51 1337 -116 496
-429 854 -871 995 -362 115 -825 54 -1124 -149 l-59 -40 -6 82 c-4 45 -9 101
-12 125 l-6 42 -564 0 -564 0 0 -1730z m880 1447 c0 -2 9 -90 20 -197 11 -107
20 -198 20 -202 0 -4 51 -8 113 -8 l112 0 19 34 c52 98 166 203 286 265 157
81 274 106 495 106 210 -1 318 -26 474 -111 260 -142 447 -410 521 -743 35
-162 40 -293 40 -1178 l0 -863 -260 0 -260 0 0 779 c0 664 -2 791 -16 861 -48
253 -214 481 -431 593 -146 75 -181 82 -393 82 -213 0 -291 -13 -411 -71 -99
-47 -207 -157 -266 -270 -50 -95 -89 -232 -103 -364 -5 -54 -10 -420 -10 -852
l0 -758 -275 0 -275 0 0 1450 0 1450 300 0 c165 0 300 -1 300 -3z"/>
</g>
</svg>
