<?xml version="1.0" standalone="no"?>
<!DOCTYPE svg PUBLIC "-//W3C//DTD SVG 20010904//EN"
 "http://www.w3.org/TR/2001/REC-SVG-20010904/DTD/svg10.dtd">
<svg version="1.0" xmlns="http://www.w3.org/2000/svg"
 width="512.000000pt" height="512.000000pt" viewBox="0 0 512.000000 512.000000"
 preserveAspectRatio="xMidYMid meet">

<g transform="translate(0.000000,512.000000) scale(0.100000,-0.100000)"
fill="#000000" stroke="none">
<path d="M2951 4917 c-19 -7 -44 -25 -55 -40 -20 -27 -21 -40 -21 -324 l0
-295 37 -34 c43 -38 88 -45 138 -19 57 30 60 46 60 352 0 296 -2 310 -50 344
-35 25 -69 30 -109 16z"/>
<path d="M2353 4260 c-39 -23 -53 -48 -53 -92 0 -18 30 -204 66 -412 65 -368
66 -380 48 -393 -10 -8 -162 -102 -337 -209 -329 -203 -347 -217 -347 -281 0
-34 31 -88 60 -103 12 -6 159 -31 326 -54 168 -24 306 -45 308 -47 2 -2 -502
-520 -1120 -1152 -827 -845 -1126 -1157 -1134 -1182 -32 -97 75 -187 163 -139
19 11 535 532 1148 1159 612 627 1117 1141 1120 1143 4 2 12 -21 18 -50 7 -29
38 -174 70 -322 56 -258 60 -271 90 -298 24 -22 41 -28 76 -28 77 0 88 16 270
410 l165 355 47 -4 c27 -2 199 -18 383 -36 308 -30 338 -31 373 -18 50 20 71
62 68 133 -1 18 -76 99 -286 310 -157 157 -285 288 -285 292 0 3 68 169 150
367 155 373 166 413 134 459 -20 29 -66 52 -105 52 -22 0 -129 -55 -371 -190
l-339 -191 -272 248 c-150 137 -285 258 -301 271 -36 28 -90 29 -133 2z m507
-665 c112 -103 156 -130 199 -120 15 3 124 59 241 125 118 65 216 117 218 115
2 -2 -37 -104 -88 -227 -51 -123 -96 -235 -101 -250 -16 -57 4 -86 198 -280
131 -131 182 -188 168 -188 -11 0 -110 9 -220 20 -274 27 -298 27 -334 -7 -19
-18 -65 -106 -132 -250 -56 -123 -105 -223 -108 -223 -4 0 -31 111 -60 247
-29 136 -60 258 -69 271 -9 14 -30 30 -47 37 -16 7 -139 28 -272 46 -134 18
-243 35 -243 38 0 4 100 67 221 141 121 74 227 146 236 159 23 35 20 77 -26
333 -23 125 -41 232 -41 239 0 11 52 -34 260 -226z"/>
<path d="M1262 3810 c-69 -42 -79 -130 -22 -185 28 -27 47 -32 273 -71 267
-47 322 -52 355 -28 71 49 65 165 -11 206 -17 9 -514 98 -547 98 -8 0 -30 -9
-48 -20z"/>
<path d="M4500 3599 c-184 -48 -349 -95 -367 -105 -36 -19 -67 -83 -58 -118
18 -65 56 -96 117 -96 18 0 184 39 368 87 309 80 338 89 368 119 27 27 32 39
32 78 0 36 -6 52 -27 76 -52 57 -64 56 -433 -41z"/>
<path d="M3488 2152 c-30 -18 -58 -67 -58 -102 0 -31 15 -56 173 -297 150
-228 164 -243 232 -243 70 0 131 86 106 151 -5 15 -76 128 -157 253 -99 154
-156 232 -175 241 -37 20 -88 18 -121 -3z"/>
</g>
</svg>
